<svg width="1920" height="1080" viewBox="0 0 1920 1080" fill="none" xmlns="http://www.w3.org/2000/svg">
  <defs>
    <linearGradient id="bg" x1="0" y1="0" x2="1920" y2="1080" gradientUnits="userSpaceOnUse">
      <stop stop-color="#F6F0E7"/>
      <stop offset="0.55" stop-color="#EFE4D4"/>
      <stop offset="1" stop-color="#E7D7C0"/>
    </linearGradient>
    <radialGradient id="orb1" cx="0" cy="0" r="1" gradientUnits="userSpaceOnUse" gradientTransform="translate(380 210) rotate(35) scale(510 360)">
      <stop stop-color="#E7C781" stop-opacity="0.28"/>
      <stop offset="1" stop-color="#E7C781" stop-opacity="0"/>
    </radialGradient>
    <radialGradient id="orb2" cx="0" cy="0" r="1" gradientUnits="userSpaceOnUse" gradientTransform="translate(1500 880) rotate(-12) scale(620 420)">
      <stop stop-color="#CFA96A" stop-opacity="0.2"/>
      <stop offset="1" stop-color="#CFA96A" stop-opacity="0"/>
    </radialGradient>
    <pattern id="grain" width="120" height="120" patternUnits="userSpaceOnUse">
      <circle cx="22" cy="16" r="0.9" fill="#7D6644" fill-opacity="0.06"/>
      <circle cx="72" cy="28" r="0.8" fill="#7D6644" fill-opacity="0.05"/>
      <circle cx="108" cy="62" r="0.7" fill="#7D6644" fill-opacity="0.04"/>
      <circle cx="28" cy="74" r="0.8" fill="#7D6644" fill-opacity="0.05"/>
      <circle cx="62" cy="94" r="0.7" fill="#7D6644" fill-opacity="0.04"/>
      <circle cx="98" cy="104" r="0.6" fill="#7D6644" fill-opacity="0.04"/>
    </pattern>
    <linearGradient id="line" x1="0" y1="0" x2="1" y2="1">
      <stop stop-color="#C9A15F" stop-opacity="0.3"/>
      <stop offset="1" stop-color="#C9A15F" stop-opacity="0"/>
    </linearGradient>
  </defs>

  <rect width="1920" height="1080" fill="url(#bg)"/>
  <rect width="1920" height="1080" fill="url(#orb1)"/>
  <rect width="1920" height="1080" fill="url(#orb2)"/>

  <path d="M-140 860C220 690 520 760 860 690C1230 610 1560 460 2020 520" stroke="url(#line)" stroke-width="2"/>
  <path d="M-180 930C210 770 610 840 930 760C1280 670 1600 560 2060 610" stroke="url(#line)" stroke-width="1.5"/>
  <path d="M-120 220C240 340 520 250 840 320C1170 390 1480 560 2010 520" stroke="url(#line)" stroke-width="1.2"/>

  <rect width="1920" height="1080" fill="url(#grain)"/>
</svg>
